<svg xmlns="http://www.w3.org/2000/svg" width="80" height="80" fill="none" viewBox="0 0 80 80"><path fill="#1453FF" d="M39.9666 6.66675C21.5666 6.66675 6.6333 21.6001 6.6333 40.0001C6.6333 58.4001 21.5666 73.3334 39.9666 73.3334C58.3666 73.3334 73.3 58.4001 73.3 40.0001C73.3 21.6001 58.3666 6.66675 39.9666 6.66675ZM52 27.8001C55.5666 27.8001 58.4333 30.6667 58.4333 34.2334C58.4333 37.8001 55.5666 40.6667 52 40.6667C48.4333 40.6667 45.5666 37.8001 45.5666 34.2334C45.5333 30.6667 48.4333 27.8001 52 27.8001ZM32 22.5334C36.3333 22.5334 39.8666 26.0667 39.8666 30.4001C39.8666 34.7334 36.3333 38.2667 32 38.2667C27.6666 38.2667 24.1333 34.7334 24.1333 30.4001C24.1333 26.0334 27.6333 22.5334 32 22.5334ZM32 52.9667V65.4667C24 62.9667 17.6666 56.8001 14.8666 48.9334C18.3666 45.2001 27.1 43.3001 32 43.3001C33.7666 43.3001 36 43.5667 38.3333 44.0334C32.8666 46.9334 32 50.7667 32 52.9667ZM39.9666 66.6667C39.0666 66.6667 38.2 66.6334 37.3333 66.5334V52.9667C37.3333 48.2334 47.1333 45.8667 52 45.8667C55.5666 45.8667 61.7333 47.1667 64.8 49.7001C60.9 59.6001 51.2666 66.6667 39.9666 66.6667H39.9666Z"/></svg>