<svg width="70" height="70" viewBox="0 0 70 70" fill="none" xmlns="http://www.w3.org/2000/svg">
<path d="M51.1131 20.0951L28.4262 42.782L16.0672 30.4574L11.2131 35.3115L28.4262 52.5246L55.9672 24.9836L51.1131 20.0951ZM35.3115 0.885254C16.3082 0.885254 0.885239 16.3082 0.885239 35.3115C0.885239 54.3148 16.3082 69.7377 35.3115 69.7377C54.3147 69.7377 69.7377 54.3148 69.7377 35.3115C69.7377 16.3082 54.3147 0.885254 35.3115 0.885254ZM35.3115 62.8525C20.0951 62.8525 7.77049 50.5279 7.77049 35.3115C7.77049 20.0951 20.0951 7.7705 35.3115 7.7705C50.5279 7.7705 62.8524 20.0951 62.8524 35.3115C62.8524 50.5279 50.5279 62.8525 35.3115 62.8525Z" fill="#1453FF"/>
</svg>
