<svg xmlns="http://www.w3.org/2000/svg" width="60" height="67" fill="none" viewBox="0 0 60 67"><path fill="#1453FF" d="M53.3333 6.99992H39.4C38 3.13325 34.3333 0.333252 30 0.333252C25.6667 0.333252 22 3.13325 20.6 6.99992H6.66667C3 6.99992 0 9.99992 0 13.6666V60.3333C0 63.9999 3 66.9999 6.66667 66.9999H53.3333C57 66.9999 60 63.9999 60 60.3333V13.6666C60 9.99992 57 6.99992 53.3333 6.99992ZM30 6.99992C31.8333 6.99992 33.3333 8.49992 33.3333 10.3333C33.3333 12.1666 31.8333 13.6666 30 13.6666C28.1667 13.6666 26.6667 12.1666 26.6667 10.3333C26.6667 8.49992 28.1667 6.99992 30 6.99992ZM23.3333 53.6666L10 40.3333L14.7 35.6333L23.3333 44.2333L45.3 22.2666L50 26.9999L23.3333 53.6666Z"/></svg>